Coordinates
version=1
nRows=14
nColumns=40
inDegrees=yes

Units are S.I. units (second, meters, Newtons, ...)
If the header above contains a line with 'inDegrees', this indicates whether rotational values are in degrees (yes) or radians (no).

endheader
time	pelvis_tilt	pelvis_list	pelvis_rotation	pelvis_tx	pelvis_ty	pelvis_tz	hip_flexion_r	hip_adduction_r	hip_rotation_r	knee_angle_r	knee_angle_r_beta	ankle_angle_r	subtalar_angle_r	mtp_angle_r	hip_flexion_l	hip_adduction_l	hip_rotation_l	knee_angle_l	knee_angle_l_beta	ankle_angle_l	subtalar_angle_l	mtp_angle_l	lumbar_extension	lumbar_bending	lumbar_rotation	arm_flex_r	arm_add_r	arm_rot_r	elbow_flex_r	pro_sup_r	wrist_flex_r	wrist_dev_r	arm_flex_l	arm_add_l	arm_rot_l	elbow_flex_l	pro_sup_l	wrist_flex_l	wrist_dev_l
     11.65000000	    -20.23678123	     -1.23180833	      7.55293666	      0.08919735	      1.28684173	     -0.01320843	     58.22718356	    -11.54790325	      0.81188618	     82.01641144	      1.43145642	     -4.62404539	    -21.22190522	      0.00000000	     66.55666450	     -7.29947316	      3.77942710	     60.89082320	      1.06274535	      4.45353970	    -16.14978375	      0.00000000	    -48.49101364	     -1.71948293	      2.66964460	     55.37705822	     17.32412163	    -37.99697895	     56.45466868	      0.79377110	      0.00000000	      0.00000000	     53.94794571	      8.75035269	    -19.07370377	     43.68886582	      3.27797541	      0.00000000	      0.00000000
     11.66700000	    -20.13925687	     -1.52111175	      6.25182716	      0.08899782	      1.28700018	     -0.01136412	     61.50652302	    -10.48872983	      2.32463511	     87.30462868	      1.52375322	     -3.61960704	    -20.79938971	      0.00000000	     62.87535785	     -8.22555347	      3.34044910	     55.17014806	      0.96290073	      1.61784120	    -16.14307896	      0.00000000	    -48.50697982	     -2.11388076	      3.61331762	     55.53256960	     17.69917702	    -37.71623040	     56.42714790	      0.79395013	      0.00000000	      0.00000000	     53.84361864	      8.64593068	    -19.64596359	     43.84170542	      3.33132312	      0.00000000	      0.00000000
     11.68300000	    -20.17068611	     -1.74005586	      4.84267446	      0.08870176	      1.28690223	     -0.00933986	     65.03377315	     -9.45797587	      3.60040056	     92.09226850	      1.60731330	     -2.61419797	    -20.67074086	      0.00000000	     59.02080778	     -9.16589583	      2.34883468	     49.52677938	      0.86440537	     -1.41190675	    -16.17971177	      0.00000000	    -48.42208808	     -2.59045472	      4.55164496	     55.68117116	     18.16258728	    -37.48327501	     56.43475557	      0.79741342	      0.00000000	      0.00000000	     53.70230325	      8.47848358	    -20.11767745	     43.97912290	      3.37357381	      0.00000000	      0.00000000
     11.70000000	    -20.32369984	     -1.74025589	      3.38431569	      0.08841080	      1.28653994	     -0.00729867	     68.56722694	     -8.44920504	      4.83404379	     96.04686884	      1.67633410	     -1.41554144	    -20.67996777	      0.00000000	     55.35128386	     -9.99482090	      0.88457481	     44.54518044	      0.77746006	     -4.28160791	    -16.32500783	      0.00000000	    -48.23530914	     -3.26356146	      5.37456961	     55.80024159	     18.54624686	    -37.22866578	     56.37378505	      0.81233629	      0.00000000	      0.00000000	     53.54866228	      8.29636790	    -20.52716860	     44.04825994	      3.30771543	      0.00000000	      0.00000000
     11.71700000	    -20.60674529	     -1.86964630	      2.09137485	      0.08798480	      1.28594760	     -0.00539150	     71.98098773	     -7.46989073	      5.54199913	     99.17635835	      1.73095399	      0.46203729	    -21.12721684	      0.00000000	     52.17101682	    -10.76264263	     -0.27994203	     40.53909290	      0.70754065	     -7.03988179	    -16.01665000	      0.00000000	    -47.91757364	     -3.69410410	      6.18421760	     55.95473462	     18.79920226	    -36.86497547	     56.14296067	      0.82061723	      0.00000000	      0.00000000	     53.32294383	      8.17643226	    -20.98022108	     44.16105494	      3.30865902	      0.00000000	      0.00000000
     11.73300000	    -20.93834934	     -1.57837454	      0.64724073	      0.08769137	      1.28530709	     -0.00330704	     75.40409754	     -6.49950419	      6.42756123	    101.56710930	      1.77268047	      2.61604616	    -21.60679371	      0.00000000	     49.03968279	    -11.39688842	     -2.41796081	     37.29929252	      0.65099546	     -9.43659662	    -15.79020804	      0.00000000	    -47.58215891	     -4.55571729	      6.79166045	     56.06507127	     18.99438830	    -36.50200876	     55.87778988	      0.82869909	      0.00000000	      0.00000000	     53.09467787	      8.03562145	    -21.46487569	     44.23756297	      3.27580714	      0.00000000	      0.00000000
     11.75000000	    -21.17298160	     -1.43963382	     -0.53432469	      0.08766214	      1.28473493	     -0.00175044	     78.25800325	     -5.58307480	      6.90542367	    102.78918207	      1.79400966	      4.74955117	    -21.86944959	      0.00000000	     46.28884649	    -11.86003303	     -4.23928090	     35.11428576	      0.61285990	    -10.74775747	    -15.51225223	      0.00000000	    -47.35959995	     -5.15989326	      7.39108924	     56.18861452	     19.14916813	    -36.19140409	     55.63134869	      0.82807695	      0.00000000	      0.00000000	     52.89761393	      7.89476859	    -21.79325979	     44.27555099	      3.18644007	      0.00000000	      0.00000000
     11.76700000	    -21.44338492	     -1.68726745	     -1.09122117	      0.08774054	      1.28405370	     -0.00122498	     80.55025265	     -5.00973976	      6.67577553	    102.71879022	      1.79278109	      6.94821079	    -22.32864045	      0.00000000	     44.28002576	    -12.07938901	     -5.00209224	     34.19440725	      0.59680499	    -11.05381521	    -15.49860808	      0.00000000	    -47.14859854	     -5.11064645	      7.86411935	     56.32717310	     19.22958391	    -35.86029657	     55.36136268	      0.83485668	      0.00000000	      0.00000000	     52.79240317	      7.74482953	    -22.04613635	     44.26105959	      3.28386295	      0.00000000	      0.00000000
     11.78300000	    -21.68206869	     -1.97114097	     -1.35256196	      0.08810449	      1.28341170	     -0.00129519	     82.34923426	     -4.58706654	      6.33439452	    101.57128109	      1.77275328	      8.92870129	    -22.79078572	      0.00000000	     42.72730311	    -12.13258835	     -5.41532018	     34.42834284	      0.60088794	    -10.39285448	    -15.82988253	      0.00000000	    -47.00111914	     -4.88159702	      8.19460654	     56.44343573	     19.26740994	    -35.62025748	     55.10370036	      0.83820499	      0.00000000	      0.00000000	     52.69496912	      7.59344333	    -22.19113619	     44.19593209	      3.37076660	      0.00000000	      0.00000000
     11.80000000	    -21.79069619	     -2.28327648	     -1.47503986	      0.08852762	      1.28312160	     -0.00141476	     83.39825666	     -4.24172561	      5.92179032	     99.47112938	      1.73609872	     10.38847708	    -22.90758854	      0.00000000	     41.79091011	    -12.25972151	     -5.70812140	     36.04927003	      0.62917845	     -8.86977445	    -16.23195923	      0.00000000	    -46.99963013	     -4.57856821	      8.48508447	     56.52548613	     19.29811757	    -35.39049707	     54.98127624	      0.83350508	      0.00000000	      0.00000000	     52.65192900	      7.46037469	    -22.24101429	     44.15378180	      3.14545079	      0.00000000	      0.00000000
     11.81700000	    -21.75631381	     -2.37917345	     -1.21502308	      0.08905719	      1.28298640	     -0.00200204	     83.70191132	     -4.29318770	      5.79203466	     96.47314814	      1.68377407	     11.37075188	    -22.55572113	      0.00000000	     41.59191311	    -12.11460031	     -5.91536139	     39.28192527	      0.68559893	     -6.52521678	    -16.75230070	      0.00000000	    -47.14684516	     -4.21207050	      8.47217815	     56.56855635	     19.38257446	    -35.37321826	     55.05258661	      0.83933379	      0.00000000	      0.00000000	     52.70991024	      7.39271758	    -22.17271420	     43.99792406	      2.99352863	      0.00000000	      0.00000000
     11.83300000	    -21.54617362	     -2.25352778	     -0.72842760	      0.08967847	      1.28316788	     -0.00286876	     83.24554183	     -4.56665506	      5.90650012	     92.60046732	      1.61618304	     11.71018780	    -22.08852518	      0.00000000	     41.88231762	    -11.71791433	     -5.96672901	     43.79577308	      0.76438044	     -3.68685118	    -17.69634273	      0.00000000	    -47.47588176	     -3.90741348	      8.19480612	     56.60368556	     19.48952874	    -35.48805440	     55.23187476	      0.84015513	      0.00000000	      0.00000000	     52.85592735	      7.34960153	    -22.09895559	     43.75536312	      3.18553283	      0.00000000	      0.00000000
     11.85000000	    -21.28479142	     -2.01239783	     -0.07830300	      0.09013425	      1.28359836	     -0.00381023	     82.10634676	     -5.06715210	      5.90712277	     88.18252847	      1.53907546	     11.48106758	    -21.81928619	      0.00000000	     42.78375029	    -11.22316389	     -5.70299829	     49.18561788	      0.85845098	     -1.02701082	    -18.54331371	      0.00000000	    -47.81055182	     -3.60520215	      7.70703617	     56.60333957	     19.56179420	    -35.64417811	     55.39294175	      0.84883793	      0.00000000	      0.00000000	     52.99490940	      7.34170884	    -22.00197737	     43.55591172	      3.30534015	      0.00000000	      0.00000000
     11.86700000	    -21.07556723	     -1.78851526	      0.86195377	      0.09017835	      1.28410470	     -0.00484512	     80.30480333	     -5.87454106	      5.46486465	     83.11532831	      1.45063614	     10.48815454	    -22.42894537	      0.00000000	     44.64798041	    -10.63091986	     -4.74856347	     55.70143550	      0.97217345	      1.00374546	    -18.95189294	      0.00000000	    -47.99044621	     -3.09276848	      6.98681685	     56.53666872	     19.55795054	    -35.74063791	     55.45448506	      0.84345726	      0.00000000	      0.00000000	     53.05572263	      7.39920774	    -22.00931137	     43.44415153	      3.29452928	      0.00000000	      0.00000000
